<svg width="498" height="241" viewBox="0 0 498 241" fill="none" xmlns="http://www.w3.org/2000/svg">
<g clip-path="url(#clip0_26_2)">
<path d="M3.37103 7.8468C5.04847 7.97327 12.6494 11.582 15.2438 12.4022C20.3063 14.0027 24.7243 14.2977 29.6833 15.4493C43.6064 18.6827 56.9751 28.282 64.5199 40.456C66.403 43.2562 67.6117 46.4259 69.0609 49.4264C71.2358 54.042 73.6384 60.6541 74.2679 65.6566C75.356 74.2998 76.0254 77.1996 81.7681 83.7957C83.6898 86.003 86.3098 90.5915 88.3087 93.1857C89.7575 95.0659 91.4896 99.2093 92.9801 101.6C104.017 101.732 112.815 102.06 122.046 109.45C124.215 111.186 125.226 113.379 128.004 115.453C132.029 118.459 135.112 118.782 139.077 121.011C140.549 116.149 144.446 117.664 148.892 117.717C151.528 112.278 154.679 113.131 160.021 113.091L166.471 102.035C167.748 99.8468 170.095 97.1415 171.681 95.0749C185.212 77.4481 204.732 65.8782 226.098 60.2216C224.02 64.3921 221.73 66.9514 219.386 70.8576C217.794 73.5101 218.08 75.2131 218.875 77.9008C213.905 80.4586 207.454 82.0696 202.267 84.6961C189.675 91.0725 175.446 103.656 167.963 115.591C168.791 121.024 168.477 126.611 168.593 132.096C168.648 134.721 168.646 136.708 167.54 139.133C163.765 141.59 155.506 141.394 151.291 139.992C150.288 138.935 149.076 136.19 148.286 136.071C144.101 135.44 142.194 137.874 139.247 134.049C133.212 132.891 126.905 141.531 124.881 146.391C133.689 152.845 140.257 160.416 149.355 167.276C158.782 174.068 169.635 182.913 180.692 186.327C180.604 186.3 195.03 183.749 196.622 183.545C204.797 182.502 214.887 187.97 223.007 189.604C226.67 190.341 225.409 193.09 224.32 195.638C218.733 199.519 215.095 197.358 209.485 196.726C209.35 197.148 209.539 197.295 209.974 197.541C214.651 200.189 219.269 202.519 223.988 205.153C228.544 207.695 234.871 209.629 237.814 214.28C238.165 214.834 238.053 217.541 237.66 218.14C237.055 219.097 235.197 219.515 234.075 219.87C231.132 219.041 228.316 217.714 225.374 217.037C228.673 219.58 238.858 224.338 234.919 230.239C233.534 232.313 230.983 231.104 229.205 231.177C228.439 231.854 228.744 233.054 228.231 234.055C226.081 238.245 219.172 234.363 216.198 232.966C216.106 236.009 216.353 238.466 212.555 238.295C211.889 238.277 210.574 238.228 209.981 237.947C199.21 232.844 188.924 226.811 179.073 220.099C174.548 217.015 170.622 212.409 165.766 209.787C162.869 208.222 159.502 207.122 156.497 205.777C141.548 199.22 125.707 195.253 110.657 188.782C106.816 187.214 103.156 184.812 99.3349 183.228C88.3286 178.667 79.1492 170.955 68.6136 165.67C63.4682 163.089 61.0985 155.085 58.1437 150.508C57.252 149.127 55.9941 147.803 54.9689 146.51C36.4727 125.236 29.2372 100.902 21.927 74.1052C28.8353 80.7962 36.0439 84.1906 45.1446 87.0449C47.7748 87.8701 51.1633 89.0984 50.6944 84.8233C49.9878 83.7619 49.1219 83.6971 47.9178 83.4734C37.9273 81.6155 29.767 76.1604 22.3796 69.4306C22.1352 68.6816 19.3662 69.2425 19.381 69.2585C14.5438 63.9747 10.443 60.0998 3.56774 57.6539C2.54925 57.2915 2.45736 55.9931 2.44037 54.9169C2.34222 48.6966 2.41157 42.4558 2.42168 36.2291L2.40287 20.2833C2.39841 17.3568 1.98228 10.0081 3.37103 7.8468ZM130 133.779C133.88 131.401 135.319 131.097 139.802 130.184C139.778 128.394 139.676 125.863 139.798 124.135C136.592 123.579 134.689 123.307 131.658 122.011C124.051 118.758 120.033 110.085 112.123 107.507C107.075 105.861 99.9353 105.552 94.5866 105.298C98.4784 113.827 100.429 122.087 102.256 131.254C109.586 133.991 115.961 139.767 122.474 143.854C124.781 139.224 125.641 136.72 130 133.779ZM74.8223 133.662C75.1062 133.183 75.7019 132.164 75.4247 131.609C73.9692 128.696 70.8761 126.683 68.6105 124.407C60.1143 115.87 55.5713 104.919 51.8496 93.6772C51.6164 92.9731 51.4256 91.9208 50.8805 91.422C49.8961 91.0745 49.576 91.0796 48.5214 91.0279C45.7866 96.3503 56.9477 117.095 60.6674 121.341C63.369 124.425 70.7045 133.927 74.8223 133.662Z" fill="#1C1C1B"/>
<path d="M257.337 26.1695C258.317 26.3513 258.55 26.345 259.169 26.9609C259.836 29.2134 252.873 55.887 251.657 60.224C254.487 60.2784 270.792 59.9517 271.957 60.9803C272.341 63.5602 269.018 66.9099 267.576 69.0799L251.172 93.325C248.818 96.7628 241.999 107.594 239.324 110.117C238.833 110.213 238.499 110.147 238.002 110.097C237.711 109.906 237.394 109.78 237.25 109.45C236.427 107.567 243.33 78.9446 244.592 75.7446C241.777 75.8262 226.508 76.1344 224.685 75.4451C223.659 72.9167 228.812 67.0745 230.364 64.6933C235.615 56.6328 241.249 48.6585 246.789 40.797C248.893 37.8067 254.742 28.1349 257.337 26.1695Z" fill="#1C1C1B"/>
<path d="M406.817 101.61C410.154 96.4976 413.086 91.2111 416.404 86.1122C418.355 83.1151 421.831 80.2479 423.163 76.78C424.683 72.9412 424.702 68.6149 425.758 64.6421C429.818 49.3654 436.075 34.6914 449.436 25.2451C456.108 20.5282 463.494 16.796 471.491 15.1772C475.826 14.2993 480.146 13.9918 484.347 12.607C487.611 11.6328 494.101 7.91082 497.062 8.03547V57.6306C490.405 60.2223 489.005 60.8235 483.67 66.0723C482.74 66.9871 481.692 68.3836 480.903 69.2517C480.299 69.9165 478.67 68.6442 477.153 69.8322C475.372 71.229 473.588 72.7643 471.821 74.2052C469.282 76.2742 465.44 78.2835 462.916 79.9176C460.008 81.7992 450.659 83.293 449.465 84.6342C449.123 85.5771 448.941 85.9212 449.067 86.9042C449.397 87.4301 449.601 87.7082 450.227 87.8822C453.273 88.731 467.297 82.3875 470.331 80.4605C471.855 79.4926 473.122 78.4005 474.418 77.1467C475.894 75.8805 477.272 75.1478 478.624 73.9474C477.289 78.0901 475.838 81.9063 474.488 85.9547C474.321 87.947 473.43 90.2721 472.903 92.2205C470.787 100.063 468.673 105.464 465.545 112.855C464.253 115.906 462.999 119.059 461.479 122.004C460.445 124.01 459.166 125.898 458.062 127.867C456.453 130.735 454.89 133.694 453.023 136.406C449.645 141.32 444.633 146.211 441.342 151.099C439.16 154.338 438.347 158.342 436.049 161.574C433.119 165.689 429 166.359 425.037 168.94C419.105 172.802 413.115 176.772 406.912 180.19C404.453 181.543 401.873 182.612 399.359 183.847C396.378 185.311 393.478 186.907 390.449 188.272C386.391 190.099 382.16 191.553 378.003 193.136C375.379 194.135 372.816 195.3 370.18 196.257C365.467 197.968 360.613 199.287 355.89 200.97C351.283 202.612 346.781 204.645 342.255 206.497C339.265 207.72 336.012 208.817 333.182 210.356C331.697 211.164 330.362 212.596 329.042 213.67C326.501 215.741 323.858 217.854 321.236 219.821C319.331 221.251 317.161 222.406 315.144 223.676C309.475 227.247 294.172 237.201 288.35 238.141C287.177 238.331 285.609 238.42 284.624 237.622C283.427 236.653 283.357 234.272 283.161 232.861C280.707 234.358 277.821 236.009 275.217 236.031C271.977 236.059 271.678 233.7 271.1 231.748C269.491 231.409 266.103 231.874 264.953 230.213C261.686 225.497 267.028 221.797 270.676 219.756C271.816 219.117 273.11 217.814 274.078 216.878C272.214 217.863 266.683 220.329 265.001 219.7C259.637 217.694 262.385 212.75 265.683 210.482C268.55 208.178 272.263 207.082 275.365 205.256C280.396 202.294 286.471 199.733 291.291 196.638C285.18 197.728 281.192 199.225 275.459 195.552C274.984 194.518 274.28 193.285 274.345 192.122C274.387 191.396 274.751 190.71 275.304 190.244C277.047 188.779 281.556 188.347 283.857 187.68C289.551 186.026 295.449 183.223 301.47 183.345C304.584 183.409 307.812 184.029 310.899 184.463C313.569 184.838 316.149 186.035 318.824 186.203C325.61 186.631 343.643 172.57 349.405 168.137C351.099 166.835 352.907 165.661 354.54 164.287C356.191 162.902 357.64 161.283 359.247 159.846L373.273 147.414C371.156 141.971 365.846 134.061 358.967 133.929C358.378 133.918 357.858 134.973 357.548 135.48C355.606 136.438 351.007 136.176 348.672 136.154C347.956 137.646 346.9 139.917 345.223 140.313C341.517 141.19 334.24 141.398 330.857 139.91C328.816 137.315 328.75 135.312 328.748 132.101C328.743 126.951 328.702 121.79 329.119 116.652C328.52 115.658 327.547 114.7 326.862 113.751C315.591 98.129 299.885 85.8101 281.462 79.8584C277.53 78.5886 274.083 76.8843 269.736 76.5882C271.824 73.0944 276.253 66.5609 277.78 63.2143C298.776 67.2732 327.814 93.2204 335.095 113.147C339.913 113.638 347.242 111.19 348.165 117.889C349.929 117.712 355.997 117.158 357.23 118.381C357.822 118.97 357.982 120.169 358.941 120.6C366.28 119.019 369.875 116.22 374.884 111.051C383.988 101.66 394.995 101.758 406.817 101.61ZM357.849 124.128C357.771 126.21 357.671 128.297 357.696 130.38C362.846 131.436 368.329 132.567 371.544 137.314C373.158 139.412 375.161 142.935 376.049 145.444C380.942 141.441 385.784 137.784 391.136 134.378C393.009 133.186 395.429 132.615 397.667 131.187C398.737 126.209 399.101 122.18 400.752 117.19C401.994 113.434 404.305 108.91 405.305 105.342C403.14 105.358 400.781 105.327 398.635 105.462C390.002 106.151 383.743 106.638 377.716 113.241C371.246 120.335 367.244 122.433 357.849 124.128ZM426.942 120.596C431.02 117.429 431.364 114.534 433.658 111.194C442.58 98.2008 441.252 97.6385 427.906 90.3255C426.753 89.6933 425.564 89.3625 424.158 89.5773C420.185 91.656 417.829 97.2645 415.712 100.558C409.144 110.774 409.661 113.079 420.527 117.93C422.94 119.007 423.467 121.087 426.942 120.596ZM427.374 133.554C430.648 131.23 432.299 129.229 435.036 126.331C443.587 117.283 448.931 105.823 452.278 93.939C452.465 93.2777 452.371 92.5188 452.164 91.8766C451.485 91.1929 450.504 91.1956 449.572 91.1931C449.368 91.1929 449.164 91.1951 448.963 91.1997C447.582 94.2764 446.973 98.2824 445.737 101.246C442.036 110.122 437.303 118.713 430.313 125.442C428.617 127.075 424.037 130.775 424.442 132.844C425.267 133.896 426.071 133.789 427.374 133.554Z" fill="#1C1C1B"/>
<path d="M474.418 77.1467C475.894 75.8805 477.272 75.1478 478.624 73.9474C477.289 78.0901 475.838 81.9063 474.488 85.9547C474.496 83.0402 474.542 80.0538 474.418 77.1467Z" fill="#1C1C1B"/>
</g>
<defs>
<clipPath id="clip0_26_2">
<rect width="497.062" height="241" fill="white"/>
</clipPath>
</defs>
</svg>
